<svg xmlns="http://www.w3.org/2000/svg" width="28" height="28" viewBox="0 0 28 28">
    <g fill="none" fill-rule="evenodd">
        <g fill="#FFF" fill-rule="nonzero">
            <g>
                <g>
                    <path d="M25 28c1.656 0 3-1.344 3-3V3c0-1.656-1.344-3-3-3H3C1.344 0 0 1.344 0 3v22c0 1.656 1.344 3 3 3h22zm-10.586-4.003h-.824c-1.507-.003-2.957-.026-3.713-.069-1.602-.08-3.016-.447-4.188-1.615-1.17-1.17-1.539-2.59-1.615-4.188-.093-1.651-.093-6.6 0-8.25.08-1.602.442-3.021 1.615-4.187C6.863 4.52 8.281 4.153 9.877 4.076c.756-.042 2.206-.065 3.713-.069h.824c1.507.004 2.956.027 3.713.07 1.602.08 3.02.446 4.187 1.615 1.167 1.169 1.54 2.589 1.616 4.19.043.755.066 2.202.07 3.707v.824c-.004 1.506-.027 2.955-.07 3.712-.08 1.602-.446 3.021-1.616 4.188-1.169 1.166-2.587 1.539-4.187 1.615-.757.043-2.206.066-3.713.07zm5.482-2.2c.869-.343 1.558-1.033 1.9-1.901.523-1.313.403-4.441.403-5.896s.12-4.579-.402-5.896h-.003c-.342-.869-1.032-1.558-1.9-1.9C18.58 5.684 15.456 5.8 14 5.8c-1.456 0-4.578-.12-5.894.402-.869.343-1.558 1.032-1.901 1.9-.518 1.313-.402 4.441-.402 5.896s-.116 4.58.405 5.897c.342.868 1.032 1.558 1.9 1.9 1.313.518 4.438.402 5.894.402 1.457 0 4.578.12 5.894-.402zM19.34 9.858l-.003-.003c-.66 0-1.197-.536-1.197-1.196 0-.66.536-1.196 1.197-1.196.66 0 1.196.536 1.196 1.196v.005c0 .659-.535 1.193-1.193 1.194zm-5.333 9.266H14c-2.829 0-5.125-2.296-5.125-5.125S11.171 8.875 14 8.875s5.125 2.296 5.125 5.125v.006c0 2.826-2.294 5.12-5.119 5.12zm-.005-1.791c1.84 0 3.334-1.494 3.334-3.334-.001-1.84-1.495-3.333-3.335-3.334-1.84.001-3.332 1.494-3.332 3.334S12.16 17.334 14 17.334z" transform="translate(-866 -3158) translate(-11 2683) translate(877 475)"/>
                </g>
            </g>
        </g>
    </g>
</svg>
