<svg xmlns="http://www.w3.org/2000/svg" width="28" height="28" viewBox="0 0 28 28">
    <g fill="none" fill-rule="evenodd">
        <g fill="#FFF" fill-rule="nonzero">
            <g>
                <g>
                    <path d="M185 0c1.656 0 3 1.344 3 3v22c0 1.656-1.344 3-3 3h-22c-1.656 0-3-1.344-3-3V3c0-1.656 1.344-3 3-3zm-6.652 3.992h-3.34v13.651c0 1.61-1.27 2.916-2.832 2.916-1.564 0-2.833-1.306-2.833-2.915 0-1.61 1.27-2.916 2.833-2.916.296 0 .581.047.85.134V11.35c-.28-.04-.558-.06-.848-.06-3.405 0-6.17 2.845-6.17 6.35 0 3.506 2.765 6.352 6.17 6.352s6.169-2.845 6.17-6.349V10.66c1.306.962 2.913 1.534 4.64 1.534h.02V8.779l-.006-.002c-.937 0-1.81-.29-2.537-.785-1.052-.697-1.808-1.822-2.046-3.134-.047-.27-.071-.543-.071-.827v-.04z" transform="translate(-1026 -3158) translate(-11 2683) translate(877 475)"/>
                </g>
            </g>
        </g>
    </g>
</svg>
