<svg xmlns="http://www.w3.org/2000/svg" width="28" height="28" viewBox="0 0 28 28">
    <g fill="none" fill-rule="evenodd">
        <g fill="#FFF" fill-rule="nonzero">
            <g>
                <g>
                    <path d="M105 28c1.656 0 3-1.344 3-3V3c0-1.656-1.344-3-3-3H83c-1.656 0-3 1.344-3 3v22c0 1.656 1.344 3 3 3h22zm-14.706-5.881c-2.325 0-4.482-.675-6.294-1.838.331.038.65.05.987.05 1.92 0 3.682-.65 5.088-1.75-1.8-.037-3.313-1.218-3.831-2.843.631.093 1.2.093 1.85-.075-1.875-.382-3.282-2.032-3.282-4.025v-.05c.544.306 1.182.493 1.85.518-1.102-.733-1.829-1.986-1.829-3.408 0-.002.005-.002.005-.004 0-.763.2-1.463.556-2.069 2.018 2.488 5.05 4.113 8.45 4.288-.582-2.782 1.5-5.038 4-5.038 1.181 0 2.243.494 2.993 1.294.925-.175 1.813-.519 2.6-.988-.306.95-.95 1.75-1.8 2.257.825-.088 1.625-.32 2.363-.638-.556.819-1.256 1.544-2.056 2.125.012.175.012.356.012.531 0 5.419-4.125 11.663-11.662 11.663z" transform="translate(-946 -3158) translate(-11 2683) translate(877 475)"/>
                </g>
            </g>
        </g>
    </g>
</svg>
