<svg xmlns="http://www.w3.org/2000/svg" width="28" height="28" viewBox="0 0 28 28">
    <g fill="none" fill-rule="evenodd">
        <g fill="#FFF" fill-rule="nonzero">
            <g>
                <g>
                    <path d="M145 28c1.656 0 3-1.344 3-3V3c0-1.656-1.344-3-3-3h-22c-1.656 0-3 1.344-3 3v22c0 1.656 1.344 3 3 3h22zm-10.99-6H134h-.247c-1.269-.006-7.068-.053-8.64-.475-.982-.262-1.75-1.006-2.013-1.994-.416-1.564-.468-4.611-.474-5.349l-.001-.152v-.175c.007-.739.06-3.79.475-5.349.262-.987 1.031-1.762 2.012-2.025 1.573-.427 7.372-.475 8.641-.48h.494c1.269.005 7.068.053 8.64.48.982.263 1.75 1.038 2.013 2.025.416 1.564.468 4.612.474 5.35v.326c-.006.738-.058 3.784-.474 5.343-.263.988-1.031 1.731-2.013 1.994-1.572.428-7.371.475-8.64.48l-.206.001h-.03zm-2.335-4.606l5.95-3.381-5.95-3.382v6.763z" transform="translate(-986 -3158) translate(-11 2683) translate(877 475)"/>
                </g>
            </g>
        </g>
    </g>
</svg>
